PathFileType	4	(X/Y/Z)	./resultDataOpenSim/trcMotMarkerGrf/sub09/qtm-12-04.trc
DataRate	CameraRate	NumFrames	NumMarkers	Units	OrigDataRate	OrigDataStartFrame	OrigNumFrames
250.000000	250.000000	5	24	m	250.000000	121	481
Frame#	Time	L.Toe.Tip			R.Toe.Tip			L.Ankle.Lat			R.Ankle.Lat			L.Ankle.Med			R.Ankle.Med			L.Heel			R.Heel			L.Knee.Lat			R.Knee.Lat			L.Knee.Med			R.Knee.Med			L.Thigh.Upper			R.Thigh.Upper			L.ASIS			R.ASIS			V.Sacral			L.Acromium			R.Acromium			C7			L.Elbow			R.Elbow			L.Wrist.Lat			R.Wrist.Lat
		X1	Y1	Z1	X2	Y2	Z2	X3	Y3	Z3	X4	Y4	Z4	X5	Y5	Z5	X6	Y6	Z6	X7	Y7	Z7	X8	Y8	Z8	X9	Y9	Z9	X10	Y10	Z10	X11	Y11	Z11	X12	Y12	Z12	X13	Y13	Z13	X14	Y14	Z14	X15	Y15	Z15	X16	Y16	Z16	X17	Y17	Z17	X18	Y18	Z18	X19	Y19	Z19	X20	Y20	Z20	X21	Y21	Z21	X22	Y22	Z22	X23	Y23	Z23	X24	Y24	Z24

121	0.48	-0.16178633	0.092556623	-0.039136642	-0.58009035	0.039117117	0.057273321	-0.31307719	0.096646196	-0.075744241	-0.72862336	0.056730813	0.08180473	-0.29450177	0.11934047	0.020040578	-0.71250414	0.095066162	-0.0078066934	-0.37207164	0.044513631	-0.025792314	-0.79529306	0.03650156	0.027496836	-0.3466149	0.51598987	-0.10958158	-0.60950969	0.49817385	0.15967754	-0.35037256	0.5115342	0.015673862	-0.62210144	0.49236498	0.025399025	-0.53385137	0.89428591	-0.15582454	-0.57644118	0.9047439	0.21602926	-0.46532211	0.97906708	-0.089874821	-0.4693468	0.98315735	0.14849231	-0.63323775	1.0383161	0.019167261	-0.46150583	1.4288884	-0.14688249	-0.46726864	1.4451043	0.18179889	-0.53030578	1.4881464	0.019185993	-0.63641347	1.1067153	-0.19507817	-0.59255974	1.1007226	0.28068888	-0.54961687	0.86129754	-0.23671172	-0.40117843	0.90011011	0.25614528
122	0.484	-0.14243109	0.096254642	-0.037026692	-0.58006973	0.039091303	0.057349897	-0.29387327	0.096023418	-0.074347011	-0.72854952	0.056908238	0.081544952	-0.27600164	0.11989873	0.021494141	-0.71222899	0.09511863	-0.0079876126	-0.3513426	0.042525599	-0.024189724	-0.79524416	0.036641794	0.027106558	-0.33976668	0.51403965	-0.10979361	-0.60766131	0.49781848	0.16026284	-0.34369243	0.50968322	0.015485616	-0.61986498	0.49216841	0.025859586	-0.52676404	0.8925364	-0.1557449	-0.57102329	0.90400078	0.21607534	-0.45827196	0.97747471	-0.089622892	-0.46317484	0.98194249	0.14876781	-0.62653878	1.0368328	0.018865292	-0.45525071	1.4276896	-0.14690566	-0.46119558	1.444017	0.18182309	-0.52425149	1.4868876	0.019225765	-0.63095152	1.1060232	-0.19520665	-0.58578433	1.0994036	0.28107386	-0.54476874	0.86042039	-0.23713901	-0.39351656	0.89969884	0.25598307
123	0.488	-0.12351565	0.1001627	-0.034957444	-0.58008189	0.039012304	0.057375644	-0.27498589	0.095673564	-0.072983575	-0.72853991	0.057033253	0.081268168	-0.25773204	0.1206931	0.022835201	-0.71193608	0.095169082	-0.008197714	-0.33091802	0.040861157	-0.022627756	-0.79519188	0.036797997	0.026705003	-0.33283749	0.51200969	-0.10998663	-0.60586806	0.49744116	0.16067418	-0.33713484	0.50759166	0.01533825	-0.61743578	0.49194289	0.026356817	-0.51954023	0.89065235	-0.15564208	-0.56557081	0.90317943	0.21607933	-0.45121081	0.97578533	-0.089350152	-0.45680656	0.98071892	0.14906026	-0.61982737	1.0352788	0.01854805	-0.44902501	1.4264341	-0.14694708	-0.45514623	1.4428356	0.18184976	-0.5181047	1.4855585	0.019140739	-0.62550938	1.1052387	-0.19530069	-0.57899166	1.097981	0.28142925	-0.53977467	0.85947744	-0.23750017	-0.3859268	0.89917233	0.25582605
124	0.492	-0.10503475	0.10422144	-0.032983745	-0.58009856	0.038921079	0.057403135	-0.25642662	0.095589574	-0.071676338	-0.72856523	0.057131859	0.080978917	-0.23980969	0.12166026	0.02406556	-0.71163923	0.095201682	-0.008448821	-0.31082234	0.039514957	-0.02113736	-0.79513164	0.036966377	0.026298564	-0.32585884	0.50993835	-0.11019078	-0.60403903	0.49705252	0.16098651	-0.33058036	0.50529503	0.015306358	-0.61484519	0.49167424	0.026787449	-0.51226006	0.88864909	-0.15549614	-0.56007254	0.90226836	0.21603865	-0.44415255	0.97400405	-0.089062556	-0.45032783	0.97946341	0.14935744	-0.61310558	1.0336567	0.018217718	-0.44281584	1.4251141	-0.14699938	-0.44910627	1.4415623	0.18187486	-0.51191111	1.4841557	0.018988099	-0.620014	1.1043484	-0.19543293	-0.57217862	1.0964544	0.2817553	-0.53477034	0.85842636	-0.23785632	-0.37841538	0.89852421	0.25567561
125	0.496	-0.086980962	0.10838779	-0.031116456	-0.58009704	0.038846904	0.057459665	-0.23818071	0.095789857	-0.070436621	-0.72859061	0.05723261	0.080675386	-0.22234644	0.12274524	0.025164206	-0.71135574	0.095210133	-0.0087350901	-0.29109065	0.038475953	-0.019774152	-0.79505478	0.037147325	0.025887544	-0.31887278	0.50783934	-0.11037135	-0.60212796	0.49666798	0.16120821	-0.32400166	0.50285158	0.015383073	-0.61218881	0.4913424	0.027083485	-0.505039	0.88654284	-0.1552931	-0.55455786	0.90128656	0.21597198	-0.43710467	0.97213893	-0.088769335	-0.44381348	0.97814881	0.14965689	-0.60637542	1.0319692	0.01787648	-0.43660099	1.4237052	-0.14705096	-0.4430663	1.4402044	0.18189789	-0.50575303	1.4826645	0.018859578	-0.61444122	1.1033495	-0.19562742	-0.56534778	1.0948235	0.2820535	-0.52982193	0.8572615	-0.23825071	-0.37093613	0.89776781	0.25554761
